<svg width="20" height="20" viewBox="0 0 20 20" fill="none" xmlns="http://www.w3.org/2000/svg">
<path d="M17.4167 3.41699V9.08366C17.4167 9.65208 17.2934 9.92059 17.1418 10.0632C16.9825 10.2131 16.6773 10.3337 16.0584 10.3337H12.6917C12.0728 10.3337 11.7676 10.2131 11.6083 10.0632C11.4566 9.92059 11.3334 9.65208 11.3334 9.08366V3.41699C11.3334 2.84857 11.4566 2.58006 11.6083 2.43742C11.7676 2.28755 12.0728 2.16699 12.6917 2.16699H16.0584C16.6773 2.16699 16.9825 2.28755 17.1418 2.43742C17.2934 2.58006 17.4167 2.84857 17.4167 3.41699Z" fill="#FE4773" stroke="#FE4773"/>
<path d="M8.66671 10.917V16.5837C8.66671 17.1521 8.54344 17.4206 8.39181 17.5632C8.23252 17.7131 7.92733 17.8337 7.30837 17.8337H3.94171C3.32275 17.8337 3.01757 17.7131 2.85827 17.5632C2.70664 17.4206 2.58337 17.1521 2.58337 16.5837V10.917C2.58337 10.3486 2.70664 10.0801 2.85827 9.93742C3.01757 9.78756 3.32275 9.66699 3.94171 9.66699H7.30837C7.92733 9.66699 8.23252 9.78756 8.39181 9.93742C8.54344 10.0801 8.66671 10.3486 8.66671 10.917Z" fill="#FE4773" stroke="#FE4773"/>
<path d="M17.4167 14.25V16.5833C17.4167 17.1518 17.2934 17.4203 17.1418 17.5629C16.9825 17.7128 16.6773 17.8333 16.0584 17.8333H12.6917C12.0728 17.8333 11.7676 17.7128 11.6083 17.5629C11.4566 17.4203 11.3334 17.1518 11.3334 16.5833V14.25C11.3334 13.6816 11.4566 13.4131 11.6083 13.2704C11.7676 13.1206 12.0728 13 12.6917 13H16.0584C16.6773 13 16.9825 13.1206 17.1418 13.2704C17.2934 13.4131 17.4167 13.6816 17.4167 14.25Z" fill="#FE4773" stroke="#FE4773"/>
<path d="M9.16671 5.75033V3.41699C9.16671 2.16699 8.63338 1.66699 7.30838 1.66699H3.94171C2.61671 1.66699 2.08337 2.16699 2.08337 3.41699V5.75033C2.08337 7.00033 2.61671 7.50033 3.94171 7.50033H7.30838C8.63338 7.50033 9.16671 7.00033 9.16671 5.75033Z" fill="#FE4773"/>
</svg>
