<svg width="20" height="20" viewBox="0 0 20 20" fill="none" xmlns="http://www.w3.org/2000/svg">
<path d="M16.9308 3.64649C15.6561 3.06159 14.2892 2.63066 12.8599 2.38385C12.8339 2.37908 12.8079 2.39099 12.7945 2.4148C12.6187 2.72748 12.4239 3.13539 12.2876 3.45601C10.7503 3.22587 9.22099 3.22587 7.71527 3.45601C7.57887 3.12826 7.37707 2.72748 7.20048 2.4148C7.18707 2.39178 7.16107 2.37988 7.13504 2.38385C5.70659 2.62987 4.33963 3.0608 3.06411 3.64649C3.05307 3.65125 3.04361 3.65919 3.03732 3.6695C0.444493 7.54314 -0.265792 11.3216 0.0826501 15.0531C0.0842267 15.0714 0.0944749 15.0889 0.108665 15.1C1.81934 16.3562 3.47642 17.1189 5.10273 17.6244C5.12876 17.6324 5.15634 17.6229 5.1729 17.6014C5.55761 17.0761 5.90054 16.5221 6.19456 15.9396C6.21192 15.9055 6.19535 15.865 6.15989 15.8515C5.61594 15.6452 5.098 15.3936 4.59977 15.1079C4.56037 15.0849 4.55721 15.0285 4.59347 15.0015C4.69831 14.923 4.80318 14.8412 4.9033 14.7587C4.92141 14.7436 4.94665 14.7404 4.96794 14.75C8.24107 16.2444 11.7846 16.2444 15.0191 14.75C15.0404 14.7396 15.0657 14.7428 15.0846 14.7579C15.1847 14.8404 15.2895 14.923 15.3952 15.0015C15.4314 15.0285 15.4291 15.0849 15.3897 15.1079C14.8914 15.3991 14.3735 15.6452 13.8288 15.8507C13.7933 15.8642 13.7775 15.9055 13.7949 15.9396C14.0952 16.5213 14.4381 17.0753 14.8157 17.6006C14.8315 17.6229 14.8599 17.6324 14.8859 17.6244C16.5201 17.1189 18.1772 16.3562 19.8879 15.1C19.9028 15.0889 19.9123 15.0722 19.9139 15.0539C20.3309 10.7398 19.2154 6.99238 16.9568 3.67029C16.9513 3.65919 16.9419 3.65125 16.9308 3.64649Z" fill="#5865F2"/>
<path d="M4.88586 10.7648C4.88586 11.8759 5.69784 12.7806 6.68327 12.7806C7.68443 12.7806 8.48065 11.8759 8.48065 10.7648C8.49643 9.66167 7.69231 8.74902 6.68327 8.74902C5.68209 8.74902 4.88586 9.65373 4.88586 10.7648Z" fill="white"/>
<path d="M11.5315 10.7648C11.5315 11.8759 12.3435 12.7806 13.3289 12.7806C14.3379 12.7806 15.1263 11.8759 15.1263 10.7648C15.142 9.66167 14.3379 8.74902 13.3289 8.74902C12.3277 8.74902 11.5315 9.65373 11.5315 10.7648Z" fill="white"/>
</svg>
