<svg width="36" height="36" viewBox="0 0 36 36" fill="none" xmlns="http://www.w3.org/2000/svg">
<rect width="36" height="36" rx="8" fill="#F5F6FA"/>
<path d="M17.9751 26.9583C17.4668 26.9583 16.9418 26.9166 16.4084 26.825C12.7418 26.2 9.75008 23.2 9.14175 19.5166C8.65842 16.5916 9.56675 13.7333 11.6418 11.6583C13.7168 9.5833 16.5751 8.6833 19.4917 9.1583C23.1667 9.76663 26.1751 12.75 26.8001 16.4166C26.9334 17.225 26.9667 18.0166 26.9001 18.7666V18.775C26.8834 18.9666 26.8501 19.15 26.8001 19.3333C26.7417 19.5416 26.5834 19.7 26.3834 19.7666C26.1834 19.8333 25.9584 19.7833 25.7917 19.65C25.0084 18.9916 24.0084 18.625 22.9751 18.625C20.5584 18.625 18.6001 20.5916 18.6001 23C18.6001 24.0333 18.9668 25.0333 19.6251 25.8166C19.7667 25.9833 19.8084 26.2 19.7417 26.4083C19.6751 26.6166 19.5167 26.7666 19.3084 26.825C19.1251 26.875 18.9417 26.9083 18.7501 26.925C18.5001 26.95 18.2418 26.9583 17.9751 26.9583ZM17.9751 10.2916C15.9334 10.2916 14.0001 11.0833 12.5334 12.55C10.7501 14.3333 9.96675 16.8 10.3834 19.3166C10.9084 22.475 13.4668 25.0583 16.6251 25.5916C17.1251 25.675 17.6001 25.725 18.0584 25.7083C17.6084 24.8833 17.3667 23.95 17.3667 23C17.3667 19.9 19.8917 17.375 22.9917 17.375C23.9417 17.375 24.8751 17.6166 25.7001 18.0666C25.7084 17.6083 25.6667 17.1333 25.5834 16.6333C25.0501 13.4833 22.4667 10.9166 19.3084 10.4C18.8501 10.325 18.4084 10.2916 17.9751 10.2916Z" fill="#030303"/>
<path d="M19.1501 26.8417C18.9668 26.8417 18.7918 26.7667 18.6751 26.6167C17.8251 25.6083 17.3501 24.325 17.3501 23C17.3501 19.9 19.8751 17.375 22.9751 17.375C24.3001 17.375 25.5834 17.8417 26.5918 18.7C26.7834 18.8583 26.8584 19.1167 26.7918 19.35C26.6418 19.8667 26.3751 20.3167 25.9918 20.7L20.6751 26.0167C20.2918 26.4 19.8334 26.6667 19.3251 26.8167C19.2668 26.8333 19.2084 26.8417 19.1501 26.8417ZM22.9751 18.625C20.5584 18.625 18.6001 20.5917 18.6001 23C18.6001 23.8833 18.8668 24.7417 19.3584 25.4583C19.5168 25.375 19.6584 25.2667 19.7918 25.1333L25.1084 19.8167C25.2418 19.6833 25.3501 19.5417 25.4334 19.3833C24.7168 18.8917 23.8584 18.625 22.9751 18.625Z" fill="#030303"/>
</svg>
