<svg width="36" height="36" viewBox="0 0 36 36" fill="none" xmlns="http://www.w3.org/2000/svg">
<rect width="36" height="36" rx="8" fill="#F5F6FA"/>
<path d="M23.8335 15.292C22.1085 15.292 20.7085 13.892 20.7085 12.167C20.7085 10.442 22.1085 9.04199 23.8335 9.04199C25.5585 9.04199 26.9585 10.442 26.9585 12.167C26.9585 13.892 25.5585 15.292 23.8335 15.292ZM23.8335 10.292C22.8002 10.292 21.9585 11.1337 21.9585 12.167C21.9585 13.2003 22.8002 14.042 23.8335 14.042C24.8668 14.042 25.7085 13.2003 25.7085 12.167C25.7085 11.1337 24.8668 10.292 23.8335 10.292Z" fill="#030303"/>
<path d="M20.4998 26.9587H15.4998C10.9748 26.9587 9.0415 25.0253 9.0415 20.5003V15.5003C9.0415 10.9753 10.9748 9.04199 15.4998 9.04199H19.6665C20.0082 9.04199 20.2915 9.32533 20.2915 9.66699C20.2915 10.0087 20.0082 10.292 19.6665 10.292H15.4998C11.6582 10.292 10.2915 11.6587 10.2915 15.5003V20.5003C10.2915 24.342 11.6582 25.7087 15.4998 25.7087H20.4998C24.3415 25.7087 25.7082 24.342 25.7082 20.5003V16.3337C25.7082 15.992 25.9915 15.7087 26.3332 15.7087C26.6748 15.7087 26.9582 15.992 26.9582 16.3337V20.5003C26.9582 25.0253 25.0248 26.9587 20.4998 26.9587Z" fill="#030303"/>
</svg>
