<svg width="36" height="36" viewBox="0 0 36 36" fill="none" xmlns="http://www.w3.org/2000/svg">
<rect width="36" height="36" rx="8" fill="#F5F6FA"/>
<path d="M26.3333 15.0837C26.3333 18.0753 23.9083 20.5003 20.9167 20.5003C20.775 20.5003 20.625 20.492 20.4833 20.4837C20.275 17.842 18.1583 15.7253 15.5167 15.517C15.5083 15.3753 15.5 15.2253 15.5 15.0837C15.5 12.092 17.925 9.66699 20.9167 9.66699C23.9083 9.66699 26.3333 12.092 26.3333 15.0837Z" stroke="#030303" stroke-width="1.5" stroke-linecap="round" stroke-linejoin="round"/>
<path d="M20.4998 20.9167C20.4998 23.9083 18.0748 26.3333 15.0832 26.3333C12.0915 26.3333 9.6665 23.9083 9.6665 20.9167C9.6665 17.925 12.0915 15.5 15.0832 15.5C15.2248 15.5 15.3748 15.5083 15.5165 15.5167C18.1582 15.725 20.2748 17.8417 20.4832 20.4833C20.4915 20.625 20.4998 20.775 20.4998 20.9167Z" stroke="#030303" stroke-width="1.5" stroke-linecap="round" stroke-linejoin="round"/>
<path d="M12.6582 9.66699H10.4998C10.0415 9.66699 9.6665 10.042 9.6665 10.5003V12.6587C9.6665 13.4003 10.5665 13.7753 11.0915 13.2503L13.2498 11.092C13.7665 10.567 13.3998 9.66699 12.6582 9.66699Z" stroke="#030303" stroke-width="1.5" stroke-linecap="round" stroke-linejoin="round"/>
<path d="M23.3418 26.3332H25.5001C25.9584 26.3332 26.3334 25.9582 26.3334 25.4999V23.3416C26.3334 22.5999 25.4334 22.2249 24.9084 22.7499L22.7501 24.9082C22.2334 25.4332 22.6001 26.3332 23.3418 26.3332Z" stroke="#030303" stroke-width="1.5" stroke-linecap="round" stroke-linejoin="round"/>
</svg>
