<svg width="12" height="12" viewBox="0 0 12 12" fill="none" xmlns="http://www.w3.org/2000/svg">
<path d="M5.66315 1.21053C5.66315 1.09426 5.7574 1 5.87367 1H6.1263C6.24258 1 6.33683 1.09426 6.33683 1.21053V3.25263C6.33683 3.3689 6.24258 3.46316 6.1263 3.46316H5.87367C5.7574 3.46316 5.66315 3.3689 5.66315 3.25263V1.21053Z" fill="#787878"/>
<path d="M5.66315 8.74764C5.66315 8.63137 5.7574 8.53711 5.87367 8.53711H6.1263C6.24258 8.53711 6.33683 8.63137 6.33683 8.74764V10.7897C6.33683 10.906 6.24258 11.0003 6.1263 11.0003H5.87367C5.7574 11.0003 5.66315 10.906 5.66315 10.7897V8.74764Z" fill="#787878" fill-opacity="0.65"/>
<path d="M1.21059 6.33594C1.09432 6.33594 1.00006 6.24168 1.00006 6.12541L1.00006 5.87278C1.00006 5.75651 1.09432 5.66225 1.21059 5.66225L3.25269 5.66225C3.36896 5.66225 3.46322 5.75651 3.46322 5.87278L3.46322 6.12541C3.46322 6.24168 3.36896 6.33594 3.25269 6.33594L1.21059 6.33594Z" fill="#787878" fill-opacity="0.85"/>
<path d="M8.74721 6.33594C8.63094 6.33594 8.53668 6.24168 8.53668 6.12541L8.53668 5.87278C8.53668 5.75651 8.63094 5.66225 8.74721 5.66225L10.7893 5.66225C10.9056 5.66225 10.9998 5.75651 10.9998 5.87278L10.9998 6.12541C10.9998 6.24168 10.9056 6.33594 10.7893 6.33594L8.74721 6.33594Z" fill="#787878" fill-opacity="0.25"/>
<path d="M1.43138 4.52392C1.32352 4.48051 1.27128 4.35787 1.31469 4.25001L1.40902 4.01565C1.45243 3.90779 1.57507 3.85555 1.68293 3.89896L3.57734 4.66145C3.6852 4.70487 3.73745 4.8275 3.69403 4.93536L3.5997 5.16972C3.55629 5.27758 3.43366 5.32983 3.3258 5.28642L1.43138 4.52392Z" fill="#787878" fill-opacity="0.9"/>
<path d="M8.42272 7.33837C8.31486 7.29496 8.26261 7.17233 8.30602 7.06447L8.40035 6.83011C8.44377 6.72224 8.5664 6.67 8.67426 6.71341L10.5687 7.47591C10.6765 7.51932 10.7288 7.64195 10.6854 7.74982L10.591 7.98418C10.5476 8.09204 10.425 8.14428 10.3171 8.10087L8.42272 7.33837Z" fill="#787878" fill-opacity="0.4"/>
<path d="M1.69773 8.13094C1.59018 8.17512 1.46718 8.12375 1.423 8.0162L1.32701 7.78252C1.28283 7.67497 1.3342 7.55197 1.44175 7.50779L3.3307 6.73185C3.43825 6.68767 3.56125 6.73905 3.60543 6.8466L3.70142 7.08028C3.7456 7.18783 3.69422 7.31083 3.58667 7.35501L1.69773 8.13094Z" fill="#787878" fill-opacity="0.8"/>
<path d="M8.66959 5.26766C8.56204 5.31184 8.43904 5.26047 8.39486 5.15292L8.29887 4.91924C8.25469 4.81169 8.30606 4.68868 8.41361 4.64451L10.3026 3.86857C10.4101 3.82439 10.5331 3.87576 10.5773 3.98331L10.6733 4.217C10.7175 4.32455 10.6661 4.44755 10.5585 4.49173L8.66959 5.26766Z" fill="#787878" fill-opacity="0.2"/>
<path d="M2.37531 2.85199C2.29309 2.76977 2.29309 2.63648 2.37531 2.55426L2.55394 2.37562C2.63616 2.29341 2.76946 2.29341 2.85167 2.37562L4.29566 3.81961C4.37787 3.90182 4.37787 4.03512 4.29566 4.11734L4.11702 4.29598C4.03481 4.37819 3.90151 4.37819 3.81929 4.29598L2.37531 2.85199Z" fill="#787878" fill-opacity="0.95"/>
<path d="M7.70489 8.18011C7.62268 8.0979 7.62268 7.9646 7.70489 7.88239L7.88353 7.70375C7.96575 7.62153 8.09905 7.62153 8.18126 7.70375L9.62525 9.14773C9.70746 9.22995 9.70746 9.36325 9.62525 9.44546L9.44661 9.6241C9.36439 9.70632 9.2311 9.70632 9.14888 9.6241L7.70489 8.18011Z" fill="#787878" fill-opacity="0.45"/>
<path d="M3.81519 1.72498C3.76968 1.61799 3.81952 1.49436 3.92652 1.44885L4.159 1.34997C4.26599 1.30447 4.38962 1.35431 4.43513 1.46131L5.23439 3.3405C5.2799 3.4475 5.23005 3.57112 5.12306 3.61663L4.89058 3.71551C4.78358 3.76102 4.65996 3.71117 4.61445 3.60418L3.81519 1.72498Z" fill="#787878" fill-opacity="0.97"/>
<path d="M6.76526 8.66053C6.71975 8.55353 6.7696 8.42991 6.87659 8.3844L7.10907 8.28552C7.21607 8.24001 7.33969 8.28986 7.3852 8.39685L8.18446 10.276C8.22997 10.383 8.18012 10.5067 8.07313 10.5522L7.84065 10.6511C7.73366 10.6966 7.61003 10.6467 7.56452 10.5397L6.76526 8.66053Z" fill="#787878" fill-opacity="0.6"/>
<path d="M2.86768 9.66364C2.78546 9.74585 2.65216 9.74585 2.56995 9.66364L2.3868 9.48049C2.30458 9.39827 2.30458 9.26497 2.3868 9.18276L3.84728 7.72227C3.9295 7.64005 4.0628 7.64005 4.14501 7.72227L4.32816 7.90542C4.41038 7.98763 4.41038 8.12093 4.32816 8.20315L2.86768 9.66364Z" fill="#787878" fill-opacity="0.75"/>
<path d="M8.24774 4.28473C8.16553 4.36694 8.03223 4.36694 7.95001 4.28473L7.76686 4.10158C7.68465 4.01936 7.68465 3.88607 7.76686 3.80385L9.22735 2.34336C9.30956 2.26115 9.44286 2.26115 9.52508 2.34336L9.70823 2.52651C9.79044 2.60873 9.79044 2.74203 9.70823 2.82424L8.24774 4.28473Z" fill="#787878" fill-opacity="0.15"/>
<path d="M4.49985 10.5987C4.4551 10.706 4.33183 10.7567 4.22452 10.7119L3.98546 10.6122C3.87814 10.5675 3.82743 10.4442 3.87218 10.3369L4.66717 8.43059C4.71192 8.32328 4.83519 8.27256 4.9425 8.31731L5.18156 8.41701C5.28888 8.46176 5.33959 8.58503 5.29484 8.69234L4.49985 10.5987Z" fill="#787878" fill-opacity="0.7"/>
<path d="M7.40354 3.57327C7.35879 3.68058 7.23552 3.7313 7.1282 3.68655L6.88914 3.58685C6.78183 3.5421 6.73112 3.41883 6.77587 3.31151L7.57085 1.4052C7.61561 1.29788 7.73888 1.24717 7.84619 1.29192L8.08525 1.39162C8.19256 1.43637 8.24328 1.55964 8.19853 1.66695L7.40354 3.57327Z" fill="#787878" fill-opacity="0.1"/>
</svg>
